<?xml version="1.0" standalone="no"?>
<!DOCTYPE svg PUBLIC "-//W3C//DTD SVG 20010904//EN"
 "http://www.w3.org/TR/2001/REC-SVG-20010904/DTD/svg10.dtd">
<svg version="1.0" xmlns="http://www.w3.org/2000/svg"
 width="1680.000000pt" height="1680.000000pt" viewBox="0 0 1680.000000 1680.000000"
 preserveAspectRatio="xMidYMid meet">
<metadata>
Created by potrace 1.11, written by Peter Selinger 2001-2013
</metadata>
<g transform="translate(0.000000,1680.000000) scale(0.100000,-0.100000)"
fill="#000000" stroke="none">
<path d="M1554 10780 c-61 -21 -141 -72 -204 -128 -35 -32 -64 -46 -140 -68
-52 -16 -106 -34 -120 -40 -265 -126 -318 -156 -401 -223 -65 -53 -156 -157
-200 -226 -27 -42 -80 -147 -85 -165 0 -3 -3 -12 -7 -20 -17 -43 -41 -171 -39
-215 5 -115 120 -348 204 -414 42 -34 98 -54 103 -39 2 7 15 55 30 106 14 52
40 124 57 160 31 67 105 193 117 202 4 3 14 15 23 28 33 48 151 163 221 216
l39 28 -7 -218 c-8 -296 -13 -453 -20 -614 -3 -74 -8 -200 -10 -280 -8 -224
-13 -343 -20 -485 -4 -71 -9 -159 -10 -195 -2 -36 -4 -72 -4 -81 -1 -15 -14
-17 -98 -14 -54 1 -117 6 -139 9 -32 5 -43 3 -47 -8 -7 -17 -2 -181 6 -211 3
-11 8 -33 12 -50 13 -57 37 -112 48 -112 30 -2 136 -14 169 -19 l37 -6 -4 -46
c-8 -92 -16 -290 -20 -457 -2 -93 -5 -171 -5 -172 -3 -9 -1 -235 2 -238 2 -2
1 -31 -2 -65 -3 -33 -3 -60 0 -60 3 0 5 -35 6 -78 1 -91 11 -212 23 -264 5
-21 6 -38 3 -38 -3 0 -1 -5 6 -12 7 -7 12 -19 12 -28 0 -27 41 -144 54 -152
14 -9 129 -1 174 11 17 5 32 7 32 4 0 -3 6 -1 13 5 6 5 28 13 47 17 19 4 40
11 45 15 6 4 28 13 50 20 22 7 49 18 60 23 11 6 22 12 25 12 3 0 25 14 50 30
25 16 54 34 65 40 19 10 28 48 16 70 -6 11 -6 10 -20 85 -32 168 -40 252 -56
615 -12 255 -19 572 -16 650 1 16 9 21 38 23 43 3 88 9 123 16 13 3 40 8 60
11 42 6 167 38 233 58 l47 15 16 -36 c8 -21 27 -66 40 -102 14 -36 42 -105 61
-155 30 -77 151 -430 157 -460 15 -70 142 -409 186 -494 10 -20 17 -38 17 -41
-2 -13 71 -145 129 -231 58 -87 131 -171 195 -223 28 -23 149 -88 149 -80 0 4
6 2 13 -4 32 -26 224 -36 330 -16 127 24 204 61 280 135 37 37 67 70 67 76 0
5 -21 15 -47 22 -65 19 -136 55 -203 104 -68 49 -204 187 -245 248 -16 24 -35
50 -42 57 -13 13 -110 168 -145 231 -47 83 -158 313 -158 327 0 3 -12 31 -26
62 -15 31 -57 143 -94 247 -37 105 -84 231 -105 280 -20 50 -37 96 -37 103 -1
6 -5 12 -10 12 -4 0 -7 3 -6 8 2 8 -37 117 -50 141 -6 11 7 25 52 55 34 22 63
43 66 46 3 3 30 25 60 50 205 166 380 415 467 665 14 39 27 77 29 85 2 8 8 33
14 55 6 22 13 51 15 65 3 14 7 34 10 46 18 82 25 328 13 454 -21 212 -91 403
-212 580 -45 66 -44 66 -137 159 -77 78 -252 211 -277 211 -6 0 -12 3 -14 8
-8 19 -248 115 -318 127 -19 3 -36 8 -40 10 -4 2 -20 7 -36 9 -16 3 -40 8 -54
11 -31 6 -88 14 -160 21 -51 6 -97 6 -290 1 l-74 -2 -9 41 c-14 75 -64 96
-153 64z m358 -604 c214 -23 435 -124 571 -261 49 -49 107 -126 107 -141 0 -8
4 -14 8 -14 23 0 103 -209 119 -309 9 -55 9 -337 -1 -401 -3 -25 -8 -57 -10
-72 -2 -14 -7 -35 -10 -46 -4 -11 -9 -29 -11 -39 -7 -32 -36 -108 -46 -119 -5
-6 -6 -14 -2 -17 3 -4 1 -7 -5 -7 -7 0 -12 -5 -12 -12 0 -12 -56 -104 -77
-126 -7 -7 -13 -17 -13 -22 0 -18 -175 -186 -235 -225 -70 -48 -193 -109 -240
-121 -5 -1 -30 -9 -55 -17 -68 -23 -178 -51 -245 -62 -16 -3 -50 -9 -75 -14
-25 -5 -47 -8 -49 -6 -6 6 4 770 14 1085 3 102 8 295 10 430 5 304 14 503 23
511 16 16 115 17 234 5z"/>
<path d="M13675 9894 c-27 -8 -54 -16 -60 -17 -41 -12 -103 -61 -150 -118 -96
-117 -106 -379 -17 -475 31 -33 87 -75 105 -78 7 -1 17 -5 23 -9 16 -10 142
-12 184 -3 94 21 212 103 281 196 128 171 134 344 15 435 -70 54 -145 79 -241
81 -55 2 -109 -3 -140 -12z m235 -274 c20 -38 -18 -108 -100 -183 -80 -73
-151 -96 -182 -59 -17 19 -14 61 7 102 20 38 114 116 175 144 55 25 85 24 100
-4z"/>
<path d="M4697 9074 c-1 -1 -31 -4 -67 -8 -36 -3 -80 -10 -98 -15 -18 -5 -36
-10 -40 -10 -48 -5 -214 -87 -301 -148 -73 -52 -205 -179 -247 -238 -16 -22
-31 -42 -35 -45 -13 -12 -80 -121 -116 -190 -36 -70 -77 -165 -101 -235 -6
-16 -13 -39 -18 -50 -4 -11 -8 -24 -9 -30 -2 -5 -10 -39 -19 -75 -8 -36 -18
-78 -21 -95 -3 -16 -7 -41 -10 -55 -11 -51 -18 -169 -18 -315 0 -148 4 -196
24 -285 5 -25 11 -54 14 -65 4 -23 27 -93 47 -145 7 -19 25 -57 41 -84 15 -27
27 -50 27 -52 0 -7 72 -98 105 -134 43 -47 93 -90 104 -90 5 0 14 -6 20 -14
21 -25 164 -92 216 -102 11 -2 43 -8 70 -15 63 -14 273 -19 334 -7 94 18 94
18 199 70 45 23 82 45 82 50 0 4 6 8 13 8 36 0 267 249 267 288 0 6 3 12 8 14
18 8 92 190 107 264 22 107 18 150 -18 163 -35 13 -61 -6 -89 -63 -66 -135
-205 -296 -294 -341 -21 -11 -45 -25 -51 -32 -18 -16 -119 -53 -167 -60 -185
-29 -354 24 -459 142 -27 31 -83 154 -95 210 -22 100 -38 235 -28 235 3 0 24
-13 48 -28 24 -16 65 -35 92 -42 49 -13 173 -21 190 -12 5 3 23 6 40 7 17 1
45 8 61 14 17 7 31 12 33 12 1 -1 18 5 37 13 20 9 39 16 43 16 4 1 14 7 22 14
8 6 32 21 53 31 20 11 37 23 37 27 0 5 5 8 11 8 17 0 97 67 179 150 148 150
274 373 306 540 3 14 9 42 13 62 9 40 7 255 -3 303 -11 55 -57 174 -72 186 -8
6 -14 17 -14 23 0 6 -28 39 -62 73 -60 59 -162 122 -219 136 -51 13 -165 27
-172 21z m95 -309 c20 -27 35 -51 33 -53 -2 -2 2 -23 8 -45 12 -40 14 -207 4
-272 -25 -166 -75 -271 -179 -377 -20 -21 -42 -38 -48 -38 -5 0 -10 -3 -10 -8
0 -9 -131 -92 -144 -91 -5 0 -12 -4 -15 -9 -10 -16 -232 -104 -296 -118 -11
-2 -33 -6 -49 -10 -16 -3 -26 -2 -23 2 2 5 8 34 11 65 4 31 9 67 12 80 3 13 7
33 9 44 2 11 13 52 24 90 12 39 23 75 25 80 6 20 56 130 66 145 5 8 15 26 21
39 14 35 96 166 143 231 96 132 294 299 350 296 12 -1 36 -22 58 -51z"/>
<path d="M6610 9068 c-36 -4 -101 -17 -145 -28 -44 -11 -87 -22 -96 -24 -31
-8 -154 -58 -163 -67 -6 -5 -18 -9 -28 -9 -10 0 -18 -4 -18 -10 0 -5 -6 -10
-13 -10 -8 0 -61 -31 -118 -69 -237 -158 -380 -353 -415 -566 -8 -49 -8 -201
-1 -235 3 -14 8 -34 10 -45 41 -177 231 -342 502 -433 54 -18 147 -42 185 -48
21 -3 177 -36 230 -48 14 -3 36 -8 50 -10 86 -14 114 -21 190 -47 124 -43 173
-83 183 -150 23 -146 -229 -300 -493 -302 -71 0 -175 15 -228 33 -165 58 -249
162 -257 320 -2 41 -4 78 -5 82 0 11 -94 -35 -133 -65 -110 -83 -209 -227
-231 -332 -22 -112 -22 -108 -2 -176 24 -82 87 -145 196 -197 96 -46 211 -79
309 -90 129 -14 373 -6 443 14 10 3 30 8 45 11 35 6 44 9 63 16 8 3 47 17 85
31 277 102 461 334 469 594 4 101 -21 180 -77 247 -96 115 -152 147 -417 243
-281 102 -383 154 -491 251 -270 241 -202 647 134 810 91 44 158 59 245 56 75
-3 119 -31 152 -97 21 -42 25 -63 24 -132 -2 -94 -26 -156 -91 -239 -30 -37
-29 -43 7 -62 132 -68 333 -70 410 -3 23 20 67 108 74 148 3 19 9 53 12 75 15
88 7 217 -16 280 -13 33 -29 66 -37 73 -7 7 -13 17 -13 22 0 19 -89 92 -152
125 -38 20 -68 33 -68 29 0 -3 -6 -2 -12 4 -7 5 -31 13 -53 16 -22 3 -53 9
-70 12 -43 10 -101 10 -175 2z"/>
<path d="M8617 9075 c-1 -2 -31 -5 -67 -8 -36 -3 -78 -9 -95 -12 -16 -4 -37
-8 -45 -10 -8 -2 -16 -4 -17 -5 -2 -2 -6 -3 -10 -4 -45 -8 -184 -76 -263 -128
-107 -71 -243 -206 -310 -308 -8 -12 -20 -28 -26 -34 -5 -6 -13 -18 -17 -26
-4 -8 -13 -24 -20 -35 -28 -44 -71 -130 -69 -137 1 -5 -3 -8 -8 -8 -6 0 -10
-8 -10 -18 0 -10 -3 -22 -6 -25 -12 -11 -53 -119 -78 -202 -22 -71 -29 -104
-51 -220 -27 -144 -27 -472 0 -610 11 -56 47 -180 55 -190 5 -5 8 -12 8 -15
-1 -11 45 -106 60 -122 8 -10 12 -18 8 -18 -11 0 76 -111 127 -162 59 -59 114
-97 194 -136 53 -25 73 -33 128 -48 132 -35 390 -38 478 -5 12 5 25 9 29 10
29 6 112 49 171 89 140 93 266 239 333 386 14 31 27 62 28 69 2 7 6 19 9 27
35 87 53 218 33 245 -19 26 -66 22 -87 -6 -10 -13 -19 -27 -19 -31 0 -13 -74
-134 -109 -178 -75 -95 -167 -168 -282 -226 -49 -25 -57 -28 -134 -42 -80 -16
-275 4 -291 29 -3 5 -14 9 -25 9 -10 0 -19 5 -19 10 0 6 -4 10 -10 10 -30 0
-120 97 -154 165 -31 63 -64 185 -71 260 -3 28 -7 62 -8 78 -3 28 2 33 19 18
5 -5 26 -19 47 -30 87 -48 235 -59 352 -26 69 19 201 81 229 107 11 10 23 18
27 18 23 0 205 170 258 240 14 19 28 37 31 40 5 5 30 42 55 81 54 87 117 235
139 332 25 107 26 279 2 381 -45 190 -169 332 -342 390 -57 20 -167 38 -177
31z m56 -279 c50 -54 56 -68 72 -151 7 -40 7 -213 -1 -250 -3 -16 -7 -39 -9
-50 -14 -81 -49 -172 -89 -231 -65 -96 -181 -188 -329 -261 -68 -34 -243 -95
-305 -106 l-33 -7 6 48 c4 26 8 54 10 62 2 8 7 31 10 50 10 58 35 149 56 203
25 64 103 221 129 262 11 17 23 37 27 45 10 19 66 103 73 110 3 3 16 19 29 35
90 119 263 260 324 264 4 1 18 -10 30 -23z"/>
<path d="M11625 8998 c-38 -11 -128 -45 -182 -69 -23 -11 -49 -19 -57 -19 -9
0 -16 -4 -16 -10 0 -5 -6 -10 -14 -10 -7 0 -36 -10 -64 -21 l-51 -21 28 -52
c40 -72 85 -224 97 -326 1 -14 3 -25 4 -25 1 0 3 -9 4 -20 2 -11 6 -42 10 -70
5 -27 10 -70 12 -95 5 -67 13 -141 18 -175 7 -42 16 -129 32 -303 3 -35 7 -73
10 -85 3 -12 7 -46 9 -75 3 -30 7 -57 9 -61 4 -6 20 -76 41 -177 3 -11 16 -56
30 -100 14 -43 25 -83 25 -87 0 -16 106 -280 150 -372 59 -125 119 -224 147
-243 27 -17 183 -23 259 -9 135 24 181 58 302 222 4 6 18 30 31 55 13 25 30
52 37 61 8 8 14 21 14 27 0 7 5 12 10 12 6 0 10 4 10 9 0 4 38 89 85 187 47
98 90 188 94 199 5 11 13 31 19 45 14 34 24 64 22 69 -1 2 2 7 7 10 4 3 19 35
32 71 44 123 93 265 96 282 2 9 13 51 25 93 12 42 23 86 26 98 2 12 6 33 9 47
3 14 7 35 10 48 2 13 7 32 10 42 6 20 10 39 19 91 3 19 8 45 11 59 3 14 7 39
9 55 3 17 10 62 16 100 21 127 30 313 18 375 -15 80 -62 110 -178 115 -125 5
-254 -33 -333 -99 l-34 -28 33 -68 c19 -38 39 -90 45 -117 10 -46 14 -246 5
-288 -3 -17 -16 -116 -22 -167 -1 -10 -2 -19 -3 -20 -2 -2 -4 -14 -6 -28 -2
-14 -6 -38 -10 -55 -3 -16 -8 -43 -11 -60 -6 -39 -12 -70 -14 -70 -1 0 -4 -11
-6 -25 -4 -22 -48 -202 -59 -240 -50 -178 -168 -516 -185 -530 -3 -3 -12 -21
-20 -40 -21 -53 -74 -134 -105 -158 -43 -34 -69 -8 -106 103 -7 22 -14 43 -15
48 -1 4 -2 8 -4 10 -2 3 -7 23 -15 61 -3 16 -8 33 -10 36 -2 4 -7 20 -9 36 -3
16 -8 40 -11 54 -3 14 -8 41 -10 60 -3 19 -8 46 -11 58 -3 13 -7 52 -10 85 -3
34 -7 76 -9 92 -10 82 -21 201 -30 335 -3 47 -8 105 -11 128 -5 46 -11 128
-18 277 -3 50 -8 137 -12 195 -3 58 -7 132 -9 165 -4 64 -11 132 -21 179 -6
28 -64 118 -64 100 0 -5 -4 -3 -8 3 -11 18 -92 31 -127 21z"/>
<path d="M10680 8933 c-105 -27 -214 -101 -318 -217 -86 -96 -198 -286 -279
-476 -10 -23 -11 -23 -8 10 2 19 6 59 10 88 3 30 8 82 10 115 3 34 7 85 9 112
3 28 8 93 11 145 4 52 8 110 9 128 3 40 -13 54 -61 55 -79 1 -221 -34 -260
-66 -7 -5 -13 -7 -13 -3 0 7 -122 -57 -160 -84 l-25 -18 -2 -269 c-1 -235 -7
-436 -17 -568 -25 -323 -25 -880 0 -1128 7 -78 39 -133 90 -157 52 -26 168
-30 190 -7 4 4 16 7 26 7 31 0 187 83 193 103 4 10 2 23 -3 30 -18 23 -36 112
-49 242 -9 93 -9 364 0 440 14 107 19 142 38 225 6 25 12 52 14 60 1 8 9 35
16 60 7 25 13 50 15 55 1 6 18 55 39 110 47 125 112 260 143 293 6 7 12 17 12
21 0 18 123 133 158 148 65 27 135 22 170 -14 7 -7 17 -13 21 -13 4 0 20 -22
35 -50 15 -27 25 -50 21 -50 -3 0 -1 -10 6 -21 11 -22 14 -164 4 -209 -3 -14
-7 -36 -9 -50 -3 -14 -7 -33 -11 -42 -5 -13 -2 -18 11 -18 22 0 118 48 154 76
57 44 150 146 193 212 83 127 104 231 69 356 -8 28 -14 58 -15 66 0 8 -18 51
-41 95 -56 113 -142 196 -218 213 -63 15 -107 13 -178 -5z"/>
<path d="M16032 8927 c-15 -4 -37 -9 -50 -11 -13 -3 -54 -19 -93 -37 -84 -39
-92 -50 -113 -169 -1 -8 -5 -31 -9 -50 -8 -40 -17 -104 -22 -140 -1 -14 -6
-50 -10 -80 -14 -110 -16 -126 -20 -190 -3 -36 -7 -96 -11 -135 -3 -38 -8 -88
-10 -110 -2 -22 -6 -77 -9 -123 -4 -45 -8 -90 -10 -100 -4 -20 -47 -144 -66
-187 -7 -16 -13 -32 -13 -35 -2 -10 -40 -95 -46 -100 -3 -3 -12 -18 -20 -35
-8 -16 -41 -68 -72 -115 -98 -148 -221 -244 -324 -253 -38 -3 -105 16 -132 38
-29 23 -72 71 -72 79 0 5 -6 17 -14 25 -30 35 -60 170 -59 266 0 48 10 140 23
215 15 83 17 93 30 125 6 17 11 30 10 30 -6 0 14 76 21 81 5 3 7 10 3 15 -3 5
-1 15 4 22 6 7 12 21 14 32 1 11 5 22 8 25 10 10 54 105 52 113 -1 4 3 7 8 7
6 0 10 5 10 12 0 17 81 138 92 138 5 0 7 4 4 9 -3 5 6 17 19 27 14 10 25 23
26 29 0 5 37 41 82 78 105 87 89 75 192 138 50 30 92 57 93 62 2 4 10 7 18 7
22 0 99 47 102 63 5 24 -63 160 -96 194 -34 33 -75 46 -124 37 -51 -9 -157
-45 -163 -55 -4 -5 -15 -9 -26 -9 -10 0 -19 -5 -19 -12 0 -6 -3 -8 -6 -5 -12
12 -223 -122 -309 -195 -67 -57 -225 -213 -225 -222 0 -4 -7 -14 -16 -23 -21
-21 -105 -148 -135 -203 -13 -25 -28 -48 -34 -52 -5 -4 -7 -8 -3 -8 3 0 -7
-27 -23 -61 -31 -64 -85 -217 -94 -267 -2 -16 -7 -45 -9 -66 -3 -20 -8 -40
-10 -45 -3 -5 -8 -49 -10 -97 -3 -49 -6 -91 -6 -94 -1 -3 -1 -36 -1 -75 0 -66
2 -96 16 -190 12 -81 65 -245 95 -295 5 -8 19 -35 32 -60 36 -72 155 -183 240
-224 169 -80 329 -78 500 5 90 44 191 113 181 123 -3 3 -2 6 3 6 30 0 203 217
204 256 0 5 9 20 19 34 l19 24 1 -44 c0 -25 3 -56 6 -70 3 -14 10 -52 16 -85
6 -33 15 -66 21 -72 6 -7 8 -13 5 -13 -10 0 48 -104 74 -134 13 -15 49 -39 79
-54 46 -22 71 -26 157 -28 56 -1 119 3 139 9 42 13 103 68 122 110 16 37 17
35 -23 43 -51 9 -109 85 -130 169 -11 46 -6 375 10 700 4 77 8 161 9 187 1 26
5 50 9 54 3 4 2 14 -3 24 -5 10 -7 20 -4 22 5 6 12 133 19 358 2 80 5 145 6
145 5 0 10 461 5 480 -6 23 -10 24 -66 22 -33 -1 -73 -5 -88 -10z"/>
<path d="M13800 8893 c-82 -13 -246 -60 -313 -91 -83 -38 -91 -49 -89 -121 2
-64 10 -203 18 -311 10 -133 9 -524 -1 -785 -22 -549 12 -979 79 -1005 23 -8
141 -4 166 6 8 3 31 8 50 11 45 6 139 52 150 73 5 9 9 97 10 195 1 209 5 284
25 525 9 98 15 178 20 243 2 37 7 72 10 77 4 6 1 10 -5 10 -6 0 -8 4 -5 10 6
10 11 52 20 160 3 36 7 81 10 100 2 19 7 69 11 110 3 41 8 84 10 95 2 11 6 54
9 95 3 41 7 93 10 115 9 76 23 284 27 394 3 94 -6 102 -111 100 -42 -1 -87 -4
-101 -6z"/>
</g>
</svg>
